<svg width="20" height="20" viewBox="0 0 20 20" fill="none" xmlns="http://www.w3.org/2000/svg">
<path d="M6.20001 6.7998V14.7998H15.8" stroke="#595959" stroke-width="1.25" stroke-linecap="round" stroke-linejoin="round"/>
<path d="M10.4666 14.7999V8.93324C10.4666 8.79179 10.4105 8.65613 10.3104 8.55611C10.2104 8.45609 10.0748 8.3999 9.93331 8.3999H8.86665C8.7252 8.3999 8.58954 8.45609 8.48952 8.55611C8.3895 8.65613 8.33331 8.79179 8.33331 8.93324V14.7999" stroke="#595959" stroke-width="1.25" stroke-linecap="round" stroke-linejoin="round"/>
<path d="M14.7333 14.7999V11.0665C14.7333 10.9251 14.6771 10.7894 14.5771 10.6894C14.4771 10.5894 14.3414 10.5332 14.2 10.5332H13.1333C12.9919 10.5332 12.8562 10.5894 12.7562 10.6894C12.6562 10.7894 12.6 10.9251 12.6 11.0665V14.7999" stroke="#595959" stroke-width="1.25" stroke-linecap="round" stroke-linejoin="round"/>
<path d="M17.9333 16.9333C17.9333 17.2162 17.821 17.4875 17.6209 17.6876C17.4209 17.8876 17.1496 18 16.8667 18H4.06667C3.78377 18 3.51246 17.8876 3.31242 17.6876C3.11238 17.4875 3 17.2162 3 16.9333V3.06667C3 2.78377 3.11238 2.51246 3.31242 2.31242C3.51246 2.11238 3.78377 2 4.06667 2H14.7333C15.011 2.0004 15.2776 2.10908 15.4764 2.30293L17.6098 4.35307C17.7116 4.45235 17.7926 4.571 17.8479 4.70204C17.9032 4.83307 17.9318 4.97385 17.9319 5.11609L17.9333 16.9333Z" stroke="#595959" stroke-width="1.25" stroke-linecap="round" stroke-linejoin="round"/>
</svg>
