<svg width="158" height="91" viewBox="0 0 158 91" fill="none" xmlns="http://www.w3.org/2000/svg">
<path d="M86.0187 89.2692L155.62 52.8012C156.14 52.5288 156.601 52.1576 156.976 51.7087C157.35 51.2598 157.632 50.7422 157.804 50.1855C157.976 49.6288 158.036 49.0439 157.979 48.4644C157.923 47.8849 157.751 47.3222 157.474 46.8085C150.341 33.5684 117.422 4 79.0034 4C40.5849 4 7.65858 33.5684 0.526164 46.8085C0.249227 47.3222 0.0775008 47.8849 0.0208051 48.4644C-0.0358907 49.0439 0.0235671 49.6288 0.195778 50.1855C0.367988 50.7422 0.649576 51.2598 1.02437 51.7087C1.39917 52.1576 1.8598 52.5288 2.37991 52.8012L71.9813 89.2692C74.1424 90.4057 76.5525 91 79 91C81.4475 91 83.8576 90.4057 86.0187 89.2692Z" fill="#E8F0F9"/>
<g clip-path="url(#clip0)">
<path d="M125.413 0.550781H32.5924C30.3762 0.550781 29.5527 1.92042 29.5527 4.21965V59.5607H128.447V4.21965C128.447 1.92592 127.629 0.550781 125.413 0.550781ZM124.822 55.6663H33.2114V4.22515H124.822V55.6663Z" fill="#0D233A"/>
<path d="M33.2105 4.77645C36.2668 4.77645 39.3285 4.77645 42.3848 4.77645C49.68 4.77645 56.9753 4.77645 64.265 4.77645C73.0801 4.77645 81.8896 4.77645 90.7047 4.77645C98.3205 4.77645 105.936 4.77645 113.552 4.77645C117.249 4.77645 120.963 4.89196 124.661 4.77645C124.71 4.77645 124.766 4.77645 124.815 4.77645C125.528 4.77645 125.528 3.67634 124.815 3.67634C121.759 3.67634 118.697 3.67634 115.641 3.67634C108.346 3.67634 101.051 3.67634 93.7609 3.67634C84.9459 3.67634 76.1363 3.67634 67.3212 3.67634C59.7055 3.67634 52.0897 3.67634 44.4739 3.67634C40.7765 3.67634 37.0626 3.56083 33.3652 3.67634C33.3155 3.67634 33.2602 3.67634 33.2105 3.67634C32.4975 3.67634 32.4975 4.77645 33.2105 4.77645Z" fill="#0D233A"/>
<path d="M33.7642 55.6647C33.7642 53.9651 33.7642 52.2654 33.7642 50.5657C33.7642 46.4623 33.7642 42.3589 33.7642 38.25C33.7642 33.305 33.7642 28.36 33.7642 23.415C33.7642 19.1356 33.7642 14.8616 33.7642 10.5822C33.7642 9.16308 33.7642 7.74394 33.7642 6.3303C33.7642 5.66473 33.8139 4.97716 33.7642 4.31159C33.7642 4.28409 33.7642 4.25109 33.7642 4.22358C33.7642 3.51401 32.6588 3.51401 32.6588 4.22358C32.6588 5.92325 32.6588 7.62293 32.6588 9.3226C32.6588 13.426 32.6588 17.5294 32.6588 21.6383C32.6588 26.5833 32.6588 31.5283 32.6588 36.4733C32.6588 40.7527 32.6588 45.0267 32.6588 49.3061C32.6588 50.7252 32.6588 52.1444 32.6588 53.558C32.6588 54.2236 32.6091 54.9112 32.6588 55.5767C32.6588 55.6042 32.6588 55.6372 32.6588 55.6647C32.6588 56.3688 33.7642 56.3743 33.7642 55.6647Z" fill="#0D233A"/>
<path d="M124.821 55.1177C121.765 55.1177 118.703 55.1177 115.647 55.1177C108.352 55.1177 101.057 55.1177 93.7668 55.1177C84.9517 55.1177 76.1422 55.1177 67.3271 55.1177C59.7113 55.1177 52.0955 55.1177 44.4797 55.1177C40.7824 55.1177 37.0685 55.0022 33.3711 55.1177C33.3214 55.1177 33.2661 55.1177 33.2163 55.1177C32.5034 55.1177 32.5034 56.2178 33.2163 56.2178C36.2726 56.2178 39.3344 56.2178 42.3907 56.2178C49.6859 56.2178 56.9811 56.2178 64.2708 56.2178C73.0859 56.2178 81.8955 56.2178 90.7105 56.2178C98.3263 56.2178 105.942 56.2178 113.558 56.2178C117.255 56.2178 120.969 56.3334 124.667 56.2178C124.716 56.2178 124.772 56.2178 124.821 56.2178C125.529 56.2178 125.534 55.1177 124.821 55.1177Z" fill="#0D233A"/>
<path d="M124.268 4.22358C124.268 5.92325 124.268 7.62293 124.268 9.3226C124.268 13.426 124.268 17.5294 124.268 21.6383C124.268 26.5833 124.268 31.5283 124.268 36.4733C124.268 40.7527 124.268 45.0267 124.268 49.3061C124.268 50.7252 124.268 52.1444 124.268 53.558C124.268 54.2236 124.218 54.9112 124.268 55.5767C124.268 55.6042 124.268 55.6372 124.268 55.6647C124.268 56.3743 125.374 56.3743 125.374 55.6647C125.374 53.9651 125.374 52.2654 125.374 50.5657C125.374 46.4623 125.374 42.3589 125.374 38.25C125.374 33.305 125.374 28.36 125.374 23.415C125.374 19.1356 125.374 14.8616 125.374 10.5822C125.374 9.16308 125.374 7.74394 125.374 6.3303C125.374 5.66473 125.423 4.97716 125.374 4.31159C125.374 4.28409 125.374 4.25109 125.374 4.22358C125.374 3.51401 124.268 3.51401 124.268 4.22358Z" fill="#0D233A"/>
<path d="M125.414 0.00137514C123.275 0.00137514 121.131 0.00137514 118.992 0.00137514C113.637 0.00137514 108.287 0.00137514 102.931 0.00137514C95.8738 0.00137514 88.8218 0.00137514 81.7642 0.00137514C74.48 0.00137514 67.1958 0.00137514 59.9116 0.00137514C54.0036 0.00137514 48.1011 0.00137514 42.1931 0.00137514C39.1368 0.00137514 36.075 0.00137514 33.0187 0.00137514C32.8198 0.00137514 32.6153 -0.00412541 32.4108 0.00687569C31.4105 0.0453795 30.4322 0.380913 29.8133 1.19499C29.1556 2.05308 29.0174 3.17519 29.0064 4.2203C29.0008 5.12789 29.0064 6.03548 29.0064 6.93757C29.0064 12.5426 29.0064 18.1477 29.0064 23.7528C29.0064 30.942 29.0064 38.1257 29.0064 45.3149C29.0064 49.8419 29.0064 54.3688 29.0064 58.9013C29.0064 59.1213 29.0064 59.3413 29.0064 59.5613C29.0064 59.8584 29.2606 60.1114 29.559 60.1114C30.4433 60.1114 31.3276 60.1114 32.2118 60.1114C34.5994 60.1114 36.9924 60.1114 39.38 60.1114C42.9336 60.1114 46.4818 60.1114 50.0354 60.1114C54.3684 60.1114 58.7013 60.1114 63.0397 60.1114C67.7651 60.1114 72.4904 60.1114 77.2157 60.1114C82.0074 60.1114 86.799 60.1114 91.5962 60.1114C96.0673 60.1114 100.533 60.1114 105.004 60.1114C108.762 60.1114 112.52 60.1114 116.284 60.1114C119.003 60.1114 121.722 60.1114 124.436 60.1114C125.724 60.1114 127.011 60.1499 128.299 60.1114C128.354 60.1114 128.409 60.1114 128.465 60.1114C128.763 60.1114 129.017 59.8584 129.017 59.5613C129.017 57.4876 129.017 55.4139 129.017 53.3402C129.017 48.4612 129.017 43.5767 129.017 38.6977C129.017 33.0212 129.017 27.3391 129.017 21.6625C129.017 17.2071 129.017 12.7572 129.017 8.30171C129.017 7.14659 129.017 5.98597 129.017 4.83086C129.017 3.34571 128.979 1.64604 127.685 0.661441C127.017 0.171892 126.215 0.0178768 125.414 0.00137514C124.701 -0.00962596 124.701 1.09048 125.414 1.10149C126.215 1.11799 127 1.31051 127.442 2.03108C127.84 2.68014 127.896 3.48322 127.901 4.2258C127.901 4.38531 127.901 4.54483 127.901 4.69884C127.901 5.75495 127.901 6.80556 127.901 7.86166C127.901 12.1246 127.901 16.382 127.901 20.6449C127.901 26.195 127.901 31.7396 127.901 37.2896C127.901 42.2346 127.901 47.1741 127.901 52.1191C127.901 53.7748 127.901 55.4359 127.901 57.0916C127.901 57.8287 127.763 58.7198 127.901 59.4513C127.907 59.4843 127.901 59.5228 127.901 59.5613C128.083 59.3798 128.271 59.1928 128.454 59.0113C127.569 59.0113 126.685 59.0113 125.801 59.0113C123.413 59.0113 121.02 59.0113 118.633 59.0113C115.079 59.0113 111.531 59.0113 107.977 59.0113C103.644 59.0113 99.3114 59.0113 94.973 59.0113C90.2477 59.0113 85.5223 59.0113 80.797 59.0113C76.0054 59.0113 71.2137 59.0113 66.4166 59.0113C61.9455 59.0113 57.4799 59.0113 53.0088 59.0113C49.2506 59.0113 45.4925 59.0113 41.7288 59.0113C39.0097 59.0113 36.2905 59.0113 33.5769 59.0113C32.7314 59.0113 31.8858 59.0113 31.0402 59.0113C30.6091 59.0113 30.1393 58.9563 29.7138 59.0113C29.6585 59.0168 29.6032 59.0113 29.548 59.0113C29.7304 59.1928 29.9183 59.3798 30.1006 59.5613C30.1006 56.3435 30.1006 53.1312 30.1006 49.9134C30.1006 43.0377 30.1006 36.1565 30.1006 29.2808C30.1006 22.9112 30.1006 16.5415 30.1006 10.1664C30.1006 8.45022 30.1006 6.73405 30.1006 5.01788C30.1006 4.75385 30.1006 4.48432 30.1006 4.2203C30.1172 3.35671 30.1891 2.30611 30.8578 1.66254C31.3331 1.2115 31.9853 1.11249 32.6153 1.10149C34.8978 1.06848 37.1859 1.10149 39.4739 1.10149C44.879 1.10149 50.2841 1.10149 55.6837 1.10149C62.7413 1.10149 69.8044 1.10149 76.862 1.10149C84.0688 1.10149 91.2701 1.10149 98.4769 1.10149C104.313 1.10149 110.149 1.10149 115.985 1.10149C118.992 1.10149 121.999 1.10149 125.005 1.10149C125.138 1.10149 125.276 1.10149 125.408 1.10149C126.121 1.10149 126.121 0.00137514 125.414 0.00137514Z" fill="#0D233A"/>
<path d="M29.004 64.5621C29.004 65.4257 29.109 66.3113 29.4959 67.0923C29.8385 67.7909 30.4299 68.2915 31.1594 68.5555C31.6126 68.726 32.1155 68.7755 32.5963 68.781C32.8837 68.781 33.1601 68.528 33.149 68.231C33.138 67.9339 32.9058 67.6809 32.5963 67.6809C32.4637 67.6809 32.3366 67.6754 32.2039 67.6644C32.1432 67.6589 32.0824 67.6534 32.0216 67.6479C32.1708 67.6644 31.9774 67.6369 31.9497 67.6314C31.7452 67.5929 31.5518 67.5379 31.3584 67.4609C31.5076 67.5214 31.3473 67.4499 31.3142 67.4389C31.2699 67.4169 31.2257 67.3949 31.1815 67.3674C31.1373 67.3454 31.0986 67.3179 31.0544 67.2904C31.0268 67.2684 30.8996 67.1639 31.0212 67.2684C30.9494 67.2079 30.8775 67.1419 30.8057 67.0758C30.7725 67.0428 30.7394 67.0043 30.7062 66.9713C30.6896 66.9548 30.6731 66.9328 30.662 66.9163C30.7062 66.9768 30.7173 66.9878 30.6952 66.9548C30.5957 66.7898 30.4907 66.6303 30.4022 66.4543C30.3801 66.3993 30.3801 66.4048 30.4133 66.4763C30.4022 66.4543 30.3912 66.4268 30.3857 66.4048C30.3691 66.3553 30.347 66.3058 30.3304 66.2508C30.2972 66.1518 30.2696 66.0527 30.2475 65.9482C30.2199 65.8437 30.1978 65.7337 30.1812 65.6292C30.1701 65.5687 30.1591 65.5082 30.1535 65.4477C30.1757 65.5907 30.148 65.3872 30.148 65.3597C30.1204 65.0956 30.1093 64.8261 30.1093 64.5621C30.1093 64.2761 29.8551 64.001 29.5567 64.012C29.2582 64.0285 28.9985 64.2541 29.004 64.5621Z" fill="#0D233A"/>
<path d="M125.412 67.6802C122.328 67.6802 119.244 67.6802 116.16 67.6802C108.76 67.6802 101.354 67.6802 93.9542 67.6802C85.0065 67.6802 76.0533 67.6802 67.1055 67.6802C59.4124 67.6802 51.7192 67.6802 44.0206 67.6802C40.2679 67.6802 36.4987 67.5647 32.7461 67.6802C32.6964 67.6802 32.6411 67.6802 32.5913 67.6802C31.8784 67.6802 31.8784 68.7803 32.5913 68.7803C35.6752 68.7803 38.7591 68.7803 41.843 68.7803C49.2433 68.7803 56.649 68.7803 64.0493 68.7803C72.997 68.7803 81.9502 68.7803 90.898 68.7803C98.5911 68.7803 106.284 68.7803 113.983 68.7803C117.736 68.7803 121.505 68.8959 125.257 68.7803C125.307 68.7803 125.362 68.7803 125.412 68.7803C126.12 68.7803 126.12 67.6802 125.412 67.6802Z" fill="#0D233A"/>
<path d="M93.0706 78.9023C90.0309 78.9023 86.9912 78.9023 83.946 78.9023C79.0715 78.9023 74.2025 78.9023 69.3279 78.9023C68.217 78.9023 67.1007 78.9023 65.9898 78.9023C65.2768 78.9023 65.2768 80.0025 65.9898 80.0025C69.0295 80.0025 72.0691 80.0025 75.1144 80.0025C79.9889 80.0025 84.8579 80.0025 89.7325 80.0025C90.8433 80.0025 91.9597 80.0025 93.0706 80.0025C93.7835 80.0025 93.7835 78.9023 93.0706 78.9023Z" fill="#0D233A"/>
<path d="M88.2619 75.4297C83.1276 75.4297 77.9933 75.4297 72.8646 75.4297C72.1406 75.4297 71.4166 75.4297 70.6871 75.4297C69.9741 75.4297 69.9741 76.5298 70.6871 76.5298C75.8214 76.5298 80.9557 76.5298 86.0844 76.5298C86.8084 76.5298 87.5324 76.5298 88.2619 76.5298C88.9694 76.5298 88.9749 75.4297 88.2619 75.4297Z" fill="#0D233A"/>
<path d="M129 64.5595C129 63.1019 129 61.6387 129 60.1811C129 59.9721 129 59.7685 129 59.5595C129 58.85 127.895 58.85 127.895 59.5595C127.895 61.0172 127.895 62.4803 127.895 63.938C127.895 64.147 127.895 64.3505 127.895 64.5595C127.895 65.2691 129 65.2691 129 64.5595Z" fill="#0D233A"/>
<path d="M30.1112 64.5595C30.1112 63.1019 30.1112 61.6387 30.1112 60.1811C30.1112 59.9721 30.1112 59.7685 30.1112 59.5595C30.1112 58.85 29.0059 58.85 29.0059 59.5595C29.0059 61.0172 29.0059 62.4803 29.0059 63.938C29.0059 64.147 29.0059 64.3505 29.0059 64.5595C29.0059 65.2691 30.1112 65.2691 30.1112 64.5595Z" fill="#0D233A"/>
<path d="M127.894 64.5621C127.894 64.8316 127.883 65.0956 127.855 65.3597C127.855 65.3872 127.828 65.5852 127.85 65.4477C127.839 65.5082 127.833 65.5687 127.822 65.6292C127.805 65.7282 127.783 65.8327 127.761 65.9317C127.734 66.0417 127.706 66.1463 127.673 66.2508C127.656 66.3003 127.64 66.3498 127.618 66.4048C127.606 66.4268 127.601 66.4543 127.59 66.4763C127.623 66.4048 127.623 66.3993 127.601 66.4543C127.518 66.6303 127.413 66.7898 127.308 66.9548C127.286 66.9878 127.291 66.9768 127.341 66.9163C127.325 66.9328 127.308 66.9548 127.297 66.9713C127.264 67.0043 127.236 67.0428 127.197 67.0758C127.131 67.1474 127.059 67.2079 126.982 67.2684C127.104 67.1639 126.976 67.2684 126.949 67.2904C126.91 67.3179 126.866 67.3454 126.822 67.3674C126.777 67.3949 126.733 67.4169 126.689 67.4389C126.672 67.4444 126.534 67.5104 126.617 67.4774C126.7 67.4389 126.551 67.4994 126.54 67.5049C126.49 67.5214 126.44 67.5379 126.385 67.5544C126.28 67.5874 126.17 67.6149 126.059 67.6314C126.031 67.6369 125.838 67.6644 125.987 67.6479C125.926 67.6534 125.866 67.6644 125.805 67.6644C125.672 67.6754 125.545 67.6809 125.412 67.6809C125.125 67.6809 124.849 67.9339 124.86 68.231C124.871 68.528 125.103 68.781 125.412 68.781C126.269 68.7755 127.109 68.583 127.778 68.0329C128.358 67.5544 128.695 66.8338 128.85 66.1132C128.961 65.6017 128.999 65.0791 128.999 64.5621C128.999 64.2761 128.745 64.001 128.447 64.012C128.148 64.0285 127.899 64.2541 127.894 64.5621Z" fill="#0D233A"/>
<path d="M67.3484 68.4808C67.9618 71.0661 68.0392 73.7614 67.5639 76.3796C67.4368 77.0727 68.5035 77.3697 68.6306 76.6712C69.1446 73.8549 69.0782 70.9781 68.415 68.1893C68.2548 67.5017 67.1881 67.7933 67.3484 68.4808Z" fill="#0D233A"/>
<path d="M90.6493 68.1893C89.9861 70.9781 89.9198 73.8549 90.4338 76.6712C90.5609 77.3642 91.6275 77.0727 91.5004 76.3796C91.0251 73.7614 91.1025 71.0716 91.716 68.4808C91.8762 67.7933 90.8096 67.5017 90.6493 68.1893Z" fill="#0D233A"/>
<path d="M67.8187 76.0527C67.1057 76.4707 66.3983 76.8943 65.6854 77.3123C65.5859 77.3728 65.4864 77.4333 65.3814 77.4883C65.1327 77.6368 65.0222 77.9889 65.1824 78.2419C65.3427 78.4894 65.6743 78.5939 65.9396 78.4399C66.6525 78.0219 67.36 77.5983 68.0729 77.1803C68.1724 77.1198 68.2719 77.0593 68.3769 77.0043C68.6256 76.8558 68.7361 76.5037 68.5758 76.2507C68.4156 76.0032 68.084 75.8987 67.8187 76.0527Z" fill="#0D233A"/>
<path d="M65.3824 77.4941C65.1613 77.6206 64.9734 77.7801 64.8187 77.9836C64.686 78.1542 64.5755 78.3467 64.5423 78.5612C64.4981 78.8307 64.5202 79.0783 64.6473 79.3258C64.7468 79.5238 64.9292 79.6943 65.1226 79.7988C65.3934 79.9418 65.6974 80.0023 65.9959 80.0023C66.2832 80.0023 66.5596 79.7493 66.5485 79.4523C66.5375 79.1553 66.3054 78.9022 65.9959 78.9022C65.9185 78.9022 65.8411 78.8967 65.7637 78.8857C65.8135 78.8912 65.8632 78.8967 65.913 78.9077C65.8135 78.8912 65.714 78.8692 65.6256 78.8307C65.6698 78.8472 65.714 78.8692 65.7582 78.8857C65.6919 78.8582 65.6311 78.8252 65.5758 78.7812C65.6145 78.8087 65.6477 78.8362 65.6864 78.8692C65.6421 78.8362 65.609 78.7977 65.5758 78.7592C65.6035 78.7977 65.6311 78.8307 65.6643 78.8692C65.6366 78.8307 65.6145 78.7922 65.5924 78.7482C65.609 78.7922 65.6311 78.8362 65.6477 78.8802C65.6311 78.8362 65.6145 78.7867 65.609 78.7372C65.6145 78.7867 65.62 78.8362 65.6311 78.8857C65.6256 78.8307 65.6256 78.7757 65.6311 78.7207C65.6256 78.7702 65.62 78.8197 65.609 78.8692C65.62 78.8032 65.6366 78.7372 65.6643 78.6712C65.6477 78.7152 65.6256 78.7592 65.609 78.8032C65.6421 78.7317 65.6864 78.6602 65.7306 78.5942C65.7029 78.6327 65.6753 78.6657 65.6421 78.7042C65.7085 78.6162 65.7858 78.5447 65.8743 78.4732C65.8356 78.5007 65.8024 78.5282 65.7637 78.5612C65.819 78.5172 65.8798 78.4787 65.9406 78.4457C66.1893 78.3027 66.2998 77.9451 66.1395 77.6921C65.9793 77.4446 65.6532 77.3401 65.3824 77.4941Z" fill="#0D233A"/>
<path d="M90.6877 77.0015C91.4006 77.4195 92.108 77.8431 92.821 78.2611C92.9204 78.3216 93.0199 78.3821 93.1249 78.4372C93.3736 78.5857 93.7439 78.5032 93.8821 78.2391C94.0203 77.9751 93.9484 77.6451 93.6831 77.4855C92.9702 77.0675 92.2628 76.644 91.5498 76.2259C91.4503 76.1654 91.3509 76.1049 91.2459 76.0499C90.9972 75.9014 90.6269 75.9839 90.4887 76.2479C90.3505 76.5119 90.4224 76.842 90.6877 77.0015Z" fill="#0D233A"/>
<path d="M93.1258 78.4444C93.1866 78.4829 93.2474 78.5214 93.3027 78.5599C93.264 78.5324 93.2308 78.5049 93.1922 78.4719C93.2806 78.5379 93.358 78.6149 93.4243 78.7029C93.3966 78.6644 93.369 78.6314 93.3358 78.5929C93.3856 78.6589 93.4243 78.7249 93.4574 78.8019C93.4409 78.7579 93.4187 78.7139 93.4022 78.6699C93.4298 78.7304 93.4464 78.7964 93.4574 78.8679C93.4519 78.8184 93.4464 78.7689 93.4353 78.7194C93.4409 78.7744 93.4409 78.8294 93.4353 78.8844C93.4409 78.8349 93.4464 78.7854 93.4574 78.7359C93.4519 78.7854 93.4353 78.8349 93.4187 78.8789C93.4353 78.8349 93.4574 78.7909 93.474 78.7469C93.4574 78.7909 93.4298 78.8294 93.4022 78.8679C93.4298 78.8294 93.4574 78.7964 93.4906 78.7579C93.4574 78.8019 93.4187 78.8349 93.3801 78.8679C93.4187 78.8404 93.4519 78.8129 93.4906 78.7799C93.4353 78.8239 93.3745 78.8569 93.3082 78.8844C93.3524 78.8679 93.3966 78.8459 93.4409 78.8294C93.3469 78.8679 93.2529 78.8899 93.1535 78.9064C93.2032 78.9009 93.2529 78.8954 93.3027 78.8844C93.2253 78.8954 93.1479 78.9009 93.0706 78.9009C92.7832 78.9009 92.5068 79.1539 92.5179 79.451C92.529 79.748 92.7611 80.001 93.0706 80.001C93.579 79.9955 94.1206 79.825 94.397 79.3684C94.6346 78.9724 94.5793 78.4554 94.3251 78.0813C94.1538 77.8393 93.9438 77.6413 93.684 77.4928C93.4353 77.3498 93.065 77.4268 92.9269 77.6908C92.7887 77.9548 92.8606 78.2903 93.1258 78.4444Z" fill="#0D233A"/>
<path d="M33.7024 12.3155C36.7421 12.3155 39.7873 12.3155 42.827 12.3155C50.078 12.3155 57.3346 12.3155 64.5856 12.3155C73.3509 12.3155 82.1163 12.3155 90.8761 12.3155C98.4532 12.3155 106.025 12.3155 113.602 12.3155C117.283 12.3155 120.98 12.431 124.655 12.3155C124.711 12.3155 124.76 12.3155 124.816 12.3155C125.528 12.3155 125.528 11.2154 124.816 11.2154C121.776 11.2154 118.731 11.2154 115.691 11.2154C108.44 11.2154 101.183 11.2154 93.9323 11.2154C85.167 11.2154 76.4017 11.2154 67.6419 11.2154C60.0648 11.2154 52.4932 11.2154 44.9161 11.2154C41.2353 11.2154 37.538 11.0999 33.8627 11.2154C33.8074 11.2154 33.7577 11.2154 33.7024 11.2154C32.995 11.2154 32.995 12.3155 33.7024 12.3155Z" fill="#0D233A"/>
<path d="M90.9097 8.55891C93.2696 8.54791 95.624 8.54241 97.9839 8.53141C98.321 8.53141 98.6637 8.53141 99.0008 8.52591C99.7137 8.52041 99.7137 7.4203 99.0008 7.4258C96.6409 7.4368 94.2865 7.4423 91.9266 7.4533C91.5895 7.4533 91.2468 7.4533 90.9097 7.45881C90.1968 7.46431 90.1968 8.56442 90.9097 8.55891Z" fill="#0D233A"/>
<path d="M101.874 8.55891C104.234 8.54791 106.589 8.54241 108.949 8.53141C109.286 8.53141 109.628 8.53141 109.965 8.52591C110.678 8.52041 110.678 7.4203 109.965 7.4258C107.606 7.4368 105.251 7.4423 102.891 7.4533C102.554 7.4533 102.212 7.4533 101.874 7.45881C101.167 7.46431 101.161 8.56442 101.874 8.55891Z" fill="#0D233A"/>
<path d="M112.845 8.55891C115.205 8.54791 117.56 8.54241 119.919 8.53141C120.257 8.53141 120.599 8.53141 120.936 8.52591C121.649 8.52041 121.649 7.4203 120.936 7.4258C118.576 7.4368 116.222 7.4423 113.862 7.4533C113.525 7.4533 113.182 7.4533 112.845 7.45881C112.132 7.46431 112.132 8.56442 112.845 8.55891Z" fill="#0D233A"/>
<path d="M37.4936 7.56886C38.7481 7.56886 39.9972 7.56886 41.2517 7.56886C41.4286 7.56886 41.6054 7.56886 41.7823 7.56886C42.4952 7.56886 42.4952 6.46875 41.7823 6.46875C40.5277 6.46875 39.2787 6.46875 38.0241 6.46875C37.8473 6.46875 37.6704 6.46875 37.4936 6.46875C36.7862 6.46875 36.7806 7.56886 37.4936 7.56886Z" fill="#0D233A"/>
<path d="M37.4936 9.27589C38.7481 9.27589 39.9972 9.27589 41.2517 9.27589C41.4286 9.27589 41.6054 9.27589 41.7823 9.27589C42.4952 9.27589 42.4952 8.17578 41.7823 8.17578C40.5277 8.17578 39.2787 8.17578 38.0241 8.17578C37.8473 8.17578 37.6704 8.17578 37.4936 8.17578C36.7862 8.17578 36.7806 9.27589 37.4936 9.27589Z" fill="#0D233A"/>
<path d="M79.104 49.1904C86.6676 49.1904 92.7991 43.0879 92.7991 35.5601C92.7991 28.0322 86.6676 21.9297 79.104 21.9297C71.5403 21.9297 65.4088 28.0322 65.4088 35.5601C65.4088 43.0879 71.5403 49.1904 79.104 49.1904Z" fill="#0D233A"/>
<path d="M48.0495 33.9102H36.9961V37.2105H48.0495V33.9102Z" fill="#0D233A"/>
<path d="M62.6952 33.9102H51.6418V37.2105H62.6952V33.9102Z" fill="#0D233A"/>
<path d="M106.632 33.9102H95.579V37.2105H106.632V33.9102Z" fill="#0D233A"/>
<path d="M121.278 33.9102H110.225V37.2105H121.278V33.9102Z" fill="#0D233A"/>
</g>
<defs>
<clipPath id="clip0">
<rect width="100" height="80" fill="white" transform="translate(29)"/>
</clipPath>
</defs>
</svg>
