<svg width="241" height="48" viewBox="0 0 241 48" fill="none" xmlns="http://www.w3.org/2000/svg">
<rect x="0.5" y="0.5" width="240" height="47" rx="3.5" fill="#00CCC0"/>
<path d="M69.2222 28.2854L67.4051 19.4481L67.4107 19.45C67.4058 19.4293 67.4053 19.4079 67.4091 19.387C67.4129 19.3661 67.421 19.3462 67.4328 19.3287C67.4446 19.3111 67.4599 19.2962 67.4777 19.285C67.4955 19.2737 67.5154 19.2663 67.5362 19.2632L69.5675 18.8356C69.6513 18.8176 69.7246 18.7669 69.7717 18.6945C69.8187 18.6221 69.8356 18.5339 69.8186 18.449L69.5638 17.2108C69.5552 17.1687 69.5385 17.1287 69.5147 17.0932C69.4908 17.0577 69.4602 17.0272 69.4247 17.0036C69.3892 16.98 69.3495 16.9638 69.3078 16.9557C69.266 16.9477 69.2231 16.948 69.1815 16.9568L62.9345 18.2641C62.8929 18.2727 62.8535 18.2896 62.8184 18.3138C62.7834 18.338 62.7534 18.3689 62.7302 18.4048C62.707 18.4408 62.6911 18.481 62.6834 18.5232C62.6757 18.5654 62.6763 18.6087 62.6852 18.6507L62.94 19.8889C62.9578 19.9736 63.0079 20.0478 63.0795 20.0954C63.1511 20.1429 63.2383 20.16 63.3223 20.1429L65.3702 19.7114C65.3906 19.7066 65.4118 19.706 65.4325 19.7099C65.4531 19.7137 65.4728 19.7219 65.4901 19.7338C65.5075 19.7458 65.5222 19.7613 65.5334 19.7793C65.5445 19.7973 65.5518 19.8174 65.5548 19.8384L67.3719 28.6739C67.3897 28.7586 67.4398 28.8328 67.5113 28.8804C67.5829 28.928 67.6702 28.945 67.7541 28.9279L68.9729 28.672C69.0566 28.6541 69.1298 28.6033 69.1765 28.5308C69.2233 28.4584 69.2397 28.3701 69.2222 28.2854Z" fill="black"/>
<path d="M30.2952 25.9694C30.2808 25.9489 30.2751 25.9235 30.2792 25.8987L29.716 18.0624C29.7197 17.9802 29.6921 17.8997 29.6388 17.8375C29.5856 17.7753 29.5108 17.7361 29.4298 17.7281L27.4447 17.3546C27.3614 17.3415 27.2763 17.3616 27.2074 17.4107C27.1385 17.4598 27.0911 17.5341 27.0754 17.6179L25.1789 28.2201C25.1659 28.3043 25.1858 28.3904 25.2344 28.4601C25.283 28.5298 25.3565 28.5776 25.4393 28.5936L26.5602 28.799C26.6433 28.8127 26.7284 28.793 26.7974 28.7442C26.8663 28.6953 26.9138 28.6212 26.9295 28.5376L28.1981 21.4894C28.1981 21.4706 28.2055 21.4525 28.2187 21.4392C28.2318 21.4259 28.2497 21.4184 28.2683 21.4184C28.2869 21.4184 28.3047 21.4259 28.3179 21.4392C28.3311 21.4525 28.3385 21.4706 28.3385 21.4894L28.994 28.9727C29.0235 29.1781 29.1029 29.2752 29.2784 29.307L30.2405 29.4938C30.3187 29.5122 30.4009 29.5009 30.4714 29.462C30.5419 29.4231 30.5958 29.3593 30.6227 29.2827L33.8524 22.5203C33.862 22.5068 33.8758 22.497 33.8916 22.4926C33.9074 22.4881 33.9242 22.4893 33.9393 22.4958C33.9543 22.5023 33.9668 22.5139 33.9745 22.5285C33.9822 22.5431 33.9847 22.56 33.9817 22.5763L32.713 29.617C32.7001 29.7013 32.72 29.7873 32.7685 29.857C32.8171 29.9267 32.8906 29.9746 32.9734 29.9905L34.0943 30.196C34.1777 30.2096 34.263 30.1896 34.332 30.1404C34.4011 30.0912 34.4483 30.0166 34.4636 29.9326L36.373 19.3267C36.3865 19.2424 36.3668 19.1561 36.3181 19.0863C36.2694 19.0165 36.1957 18.9687 36.1126 18.9532L34.1349 18.5797C34.0564 18.5586 33.9728 18.569 33.9016 18.6086C33.8304 18.6483 33.7771 18.7142 33.7527 18.7926L30.4639 25.9304C30.4597 25.9552 30.446 25.9773 30.4257 25.9918C30.4055 26.0064 30.3804 26.0122 30.3559 26.0079C30.3314 26.0037 30.3095 25.9899 30.2952 25.9694Z" fill="black"/>
<path fill-rule="evenodd" clip-rule="evenodd" d="M50.9242 26.4552C50.9026 26.4551 50.8812 26.4596 50.8614 26.4684C50.8417 26.4772 50.824 26.4902 50.8095 26.5064C50.795 26.5226 50.7841 26.5418 50.7775 26.5625C50.7708 26.5833 50.7686 26.6053 50.7709 26.627L50.9704 30.7058C50.9744 30.7922 50.9444 30.8767 50.8869 30.9407C50.8295 31.0048 50.7492 31.0432 50.6638 31.0476L49.4137 31.1111C49.3281 31.1146 49.2446 31.0838 49.1813 31.0254C49.118 30.967 49.0801 30.8857 49.0758 30.7992L48.5495 20.0327C48.5455 19.9461 48.5754 19.8614 48.6328 19.797C48.6902 19.7327 48.7704 19.6939 48.856 19.689L52.082 19.5284C52.5269 19.506 52.9718 19.5726 53.3913 19.7242C53.8108 19.8758 54.1966 20.1095 54.5267 20.412C54.8568 20.7144 55.1248 21.0797 55.3153 21.487C55.5057 21.8943 55.615 22.3355 55.6367 22.7855C55.6977 24.0237 55.0255 25.105 54.1114 25.7736C53.8141 25.9603 53.792 26.1583 53.9508 26.4459L55.9599 30.2912C55.9957 30.3409 56.0165 30.3999 56.02 30.4613C56.0234 30.5226 56.0093 30.5837 55.9793 30.6371C55.9492 30.6905 55.9046 30.7341 55.8507 30.7625C55.7968 30.7909 55.736 30.803 55.6755 30.7973L54.3829 30.8608C54.2808 30.8694 54.1788 30.8446 54.0917 30.7902C54.0046 30.7357 53.9371 30.6544 53.8991 30.5583L51.9417 26.6009C51.915 26.5403 51.8701 26.4897 51.8135 26.4562C51.7568 26.4227 51.6912 26.408 51.6259 26.4141L50.9242 26.4552ZM50.6824 21.5192C50.6607 21.5191 50.6392 21.5236 50.6194 21.5324C50.5995 21.5412 50.5817 21.5541 50.5671 21.5703C50.5525 21.5865 50.5414 21.6056 50.5345 21.6264C50.5277 21.6472 50.5252 21.6692 50.5273 21.6911L50.6602 24.3841C50.6601 24.4059 50.6645 24.4276 50.6732 24.4476C50.682 24.4676 50.6948 24.4855 50.7108 24.5001C50.7268 24.5147 50.7458 24.5258 50.7663 24.5325C50.7869 24.5392 50.8086 24.5415 50.8301 24.5391L52.324 24.4644C52.72 24.4448 53.092 24.267 53.3583 23.97C53.6246 23.673 53.7634 23.2812 53.744 22.8807C53.7247 22.4802 53.5488 22.104 53.2552 21.8346C52.9615 21.5653 52.5741 21.425 52.1781 21.4445L50.6824 21.5192Z" fill="black"/>
<path d="M40.7957 28.7467C40.7933 28.7683 40.7955 28.7901 40.802 28.8108C40.8086 28.8314 40.8193 28.8505 40.8336 28.8667C40.8479 28.8829 40.8653 28.8959 40.8849 28.9048C40.9044 28.9137 40.9256 28.9184 40.9471 28.9185L44.7917 29.1595C44.8771 29.1647 44.957 29.2041 45.0138 29.2689C45.0705 29.3336 45.0996 29.4185 45.0945 29.505L45.0188 30.7693C45.0127 30.8557 44.9732 30.9362 44.909 30.9934C44.8448 31.0507 44.7609 31.0802 44.6754 31.0756L39.0968 30.7263C39.0546 30.7237 39.0133 30.7127 38.9753 30.6939C38.9373 30.6751 38.9033 30.6489 38.8753 30.6168C38.8474 30.5847 38.8259 30.5473 38.8123 30.5069C38.7986 30.4664 38.793 30.4235 38.7958 30.3808L39.4513 19.6199C39.4566 19.5335 39.4955 19.4528 39.5595 19.3954C39.6236 19.3379 39.7075 19.3085 39.793 19.3137L45.3327 19.6592C45.4182 19.6644 45.498 19.7038 45.5548 19.7686C45.6116 19.8333 45.6406 19.9182 45.6356 20.0047L45.558 21.2671C45.5523 21.3532 45.5132 21.4335 45.4492 21.4905C45.3852 21.5475 45.3015 21.5767 45.2164 21.5715L41.4198 21.3344C41.3983 21.3317 41.3766 21.3337 41.3559 21.3402C41.3353 21.3467 41.3162 21.3575 41.3 21.372C41.2838 21.3864 41.2707 21.4042 41.2618 21.4241C41.2529 21.444 41.2482 21.4656 41.2481 21.4875L41.0985 23.9359C41.0959 23.9576 41.0979 23.9796 41.1043 24.0005C41.1107 24.0214 41.1214 24.0407 41.1357 24.0571C41.15 24.0735 41.1676 24.0866 41.1873 24.0957C41.2069 24.1047 41.2283 24.1095 41.2499 24.1096L44.884 24.3411C44.9694 24.3464 45.0493 24.3858 45.1061 24.4506C45.1629 24.5153 45.1919 24.6002 45.1869 24.6866L45.1093 25.951C45.1067 25.9937 45.0958 26.0355 45.0772 26.0739C45.0587 26.1123 45.0328 26.1467 45.001 26.1749C44.9693 26.2032 44.9323 26.2249 44.8923 26.2387C44.8522 26.2525 44.8099 26.2582 44.7677 26.2554L41.1243 26.022C41.1028 26.019 41.0809 26.0208 41.0601 26.0271C41.0394 26.0335 41.0202 26.0443 41.0039 26.0588C40.9876 26.0734 40.9746 26.0913 40.9657 26.1113C40.9569 26.1314 40.9524 26.1531 40.9526 26.1751L40.7957 28.7467Z" fill="black"/>
<path d="M61.8047 29.8299C61.8149 29.7877 61.8167 29.7439 61.8099 29.701L60.3659 19.0204C60.3603 18.9773 60.3462 18.9358 60.3244 18.8983C60.3027 18.8608 60.2738 18.828 60.2394 18.8019C60.205 18.7758 60.1658 18.7569 60.1241 18.7464C60.0824 18.7358 60.0391 18.7337 59.9966 18.7403L58.7557 18.9121C58.7132 18.9181 58.6723 18.9325 58.6354 18.9545C58.5986 18.9766 58.5664 19.0059 58.5408 19.0406C58.5152 19.0754 58.4966 19.1149 58.4863 19.157C58.476 19.1991 58.474 19.2428 58.4805 19.2856L59.9246 29.9681C59.9304 30.011 59.9447 30.0524 59.9665 30.0897C59.9883 30.127 60.0172 30.1596 60.0516 30.1854C60.086 30.2113 60.1251 30.2301 60.1667 30.2405C60.2083 30.251 60.2515 30.253 60.2939 30.2464L61.5348 30.0746C61.5774 30.0689 61.6184 30.0546 61.6554 30.0326C61.6924 30.0106 61.7247 29.9814 61.7503 29.9465C61.776 29.9117 61.7945 29.8721 61.8047 29.8299Z" fill="black"/>
<rect x="87" y="16" width="1" height="16" rx="0.25" fill="black"/>
<path d="M105.254 29H111.702V27.592H106.854V18.328H105.254V29ZM116.568 29.192C118.984 29.192 120.472 27.368 120.472 25.128C120.472 22.904 118.984 21.08 116.568 21.08C114.168 21.08 112.664 22.904 112.664 25.128C112.664 27.368 114.168 29.192 116.568 29.192ZM116.568 27.912C115.032 27.912 114.168 26.6 114.168 25.128C114.168 23.672 115.032 22.36 116.568 22.36C118.12 22.36 118.968 23.672 118.968 25.128C118.968 26.6 118.12 27.912 116.568 27.912ZM122.236 30.984C123.164 31.864 124.108 32.136 125.404 32.136C127.308 32.136 129.244 31.352 129.244 28.696V21.272H127.804V22.392C127.18 21.56 126.268 21.08 125.26 21.08C123.26 21.08 121.82 22.584 121.82 25.064C121.82 27.592 123.26 29.064 125.26 29.064C126.3 29.064 127.212 28.504 127.804 27.736V28.744C127.804 30.376 126.604 30.952 125.404 30.952C124.348 30.952 123.564 30.664 122.924 29.928L122.236 30.984ZM127.804 26.632C127.404 27.256 126.524 27.784 125.66 27.784C124.22 27.784 123.324 26.664 123.324 25.064C123.324 23.48 124.22 22.36 125.66 22.36C126.524 22.36 127.404 22.872 127.804 23.496V26.632ZM132.239 19.976C132.751 19.976 133.167 19.576 133.167 19.064C133.167 18.552 132.751 18.136 132.239 18.136C131.743 18.136 131.311 18.552 131.311 19.064C131.311 19.576 131.743 19.976 132.239 19.976ZM131.535 29H132.975V21.272H131.535V29ZM140.485 29H141.925V23.576C141.925 21.944 141.077 21.08 139.445 21.08C138.245 21.08 137.221 21.736 136.709 22.36V21.272H135.269V29H136.709V23.48C137.125 22.904 137.941 22.36 138.837 22.36C139.829 22.36 140.485 22.776 140.485 24.056V29ZM155.036 29H156.524L158.956 21.272H157.452L155.692 27.16L153.756 21.272H152.508L150.572 27.16L148.812 21.272H147.308L149.74 29H151.228L153.132 23.064L155.036 29ZM160.942 19.976C161.454 19.976 161.87 19.576 161.87 19.064C161.87 18.552 161.454 18.136 160.942 18.136C160.446 18.136 160.014 18.552 160.014 19.064C160.014 19.576 160.446 19.976 160.942 19.976ZM160.238 29H161.678V21.272H160.238V29ZM166.1 29.192C166.852 29.192 167.3 28.984 167.604 28.696L167.236 27.608C167.092 27.768 166.788 27.912 166.452 27.912C165.956 27.912 165.7 27.512 165.7 26.968V22.536H167.268V21.272H165.7V19.16H164.26V21.272H162.98V22.536H164.26V27.288C164.26 28.504 164.884 29.192 166.1 29.192ZM174.079 29H175.519V23.544C175.519 21.912 174.687 21.08 173.039 21.08C171.855 21.08 170.815 21.736 170.303 22.36V18.328H168.863V29H170.303V23.48C170.719 22.904 171.535 22.36 172.431 22.36C173.423 22.36 174.079 22.744 174.079 24.024V29ZM191.157 29H192.757V18.328H190.469L187.365 25.992L184.261 18.328H181.973V29H183.573V20.52L187.029 29H187.701L191.157 20.52V29ZM194.617 25.128C194.617 27.56 196.313 29.192 198.617 29.192C199.865 29.192 200.953 28.792 201.721 28.04L201.049 27.096C200.473 27.688 199.577 28.008 198.761 28.008C197.209 28.008 196.249 26.92 196.137 25.608H202.249V25.256C202.249 22.888 200.809 21.08 198.489 21.08C196.233 21.08 194.617 22.888 194.617 25.128ZM198.489 22.264C200.121 22.264 200.809 23.544 200.841 24.568H196.121C196.201 23.512 196.937 22.264 198.489 22.264ZM204.05 29H205.49V23.624C205.826 23.048 206.802 22.504 207.522 22.504C207.714 22.504 207.874 22.52 208.018 22.552V21.096C206.994 21.096 206.082 21.688 205.49 22.456V21.272H204.05V29ZM210.161 19.976C210.673 19.976 211.089 19.576 211.089 19.064C211.089 18.552 210.673 18.136 210.161 18.136C209.665 18.136 209.233 18.552 209.233 19.064C209.233 19.576 209.665 19.976 210.161 19.976ZM209.457 29H210.897V21.272H209.457V29ZM215.319 29.192C216.071 29.192 216.519 28.984 216.823 28.696L216.455 27.608C216.311 27.768 216.007 27.912 215.671 27.912C215.175 27.912 214.919 27.512 214.919 26.968V22.536H216.487V21.272H214.919V19.16H213.479V21.272H212.199V22.536H213.479V27.288C213.479 28.504 214.103 29.192 215.319 29.192Z" fill="black"/>
<rect x="0.5" y="0.5" width="240" height="47" rx="3.5" stroke="#00927E"/>
</svg>
