<svg width="40" height="40" viewBox="0 0 40 40" fill="none" xmlns="http://www.w3.org/2000/svg">
<rect x="0.5" y="0.5" width="39" height="39" rx="19.5" fill="white" stroke="#D9D9D9"/>
<path fill-rule="evenodd" clip-rule="evenodd" d="M14.1667 25.8333H18.75C18.9801 25.8333 19.1667 26.0199 19.1667 26.25V27.0833C19.1667 27.3135 18.9801 27.5 18.75 27.5H14.1667C13.2462 27.5 12.5 26.7538 12.5 25.8333V14.1667C12.5 13.2462 13.2462 12.5 14.1667 12.5H18.75C18.9801 12.5 19.1667 12.6865 19.1667 12.9167V13.75C19.1667 13.9801 18.9801 14.1667 18.75 14.1667H14.1667V25.8333ZM23.0333 15.125L27.3167 19.4C27.4324 19.5181 27.4981 19.6763 27.5 19.8417V20.1583C27.4999 20.324 27.4339 20.4829 27.3167 20.6L23.0333 24.875C22.9551 24.9539 22.8486 24.9983 22.7375 24.9983C22.6264 24.9983 22.5199 24.9539 22.4417 24.875L21.85 24.2917C21.7711 24.2134 21.7268 24.1069 21.7268 23.9958C21.7268 23.8847 21.7711 23.7782 21.85 23.7L24.725 20.8333H16.25C16.0199 20.8333 15.8333 20.6468 15.8333 20.4167V19.5833C15.8333 19.3532 16.0199 19.1667 16.25 19.1667H24.725L21.85 16.3C21.7716 16.2232 21.7274 16.1181 21.7274 16.0083C21.7274 15.8986 21.7716 15.7935 21.85 15.7167L22.4417 15.125C22.5199 15.0461 22.6264 15.0018 22.7375 15.0018C22.8486 15.0018 22.9551 15.0461 23.0333 15.125Z" fill="#262626"/>
</svg>
